<svg height="512" viewBox="0 0 60 60" width="512" xmlns="http://www.w3.org/2000/svg"><g id="Page-1" fill="none" fill-rule="evenodd"><g id="052---Death-Zone" fill-rule="nonzero"><path id="Shape" d="m43.3 22.63c-.4707744 1.6245918-.4394021 3.3535566.09 4.96.2488423.77797.3105148 1.6036963.18 2.41-.0699927 1.2912806-.916623 2.4108899-2.14 2.83-.5751424.1707096-1.1640202.2911619-1.76.36-1.1330093.0705244-2.0687399.9110257-2.26 2.03-.1963152.9029728-.2836055 1.8262347-.26 2.75.0100746.3792166-.1899163.7330467-.52.92-.38.19-.82.29-1.27.46-.12.03-.24.07-.36.1-.66.17-1.33.31-2 .42-.6626885.1017688-1.3302818.1685281-2 .2-1.3370083.069806-2.6776512-.0005778-4-.21-.6743436-.100561-1.3421696-.2408045-2-.42-.0677602-.0119397-.1345929-.0286479-.2-.05l-.16-.04c-.45-.17-.89-.27-1.27-.46-.3300837-.1869533-.5300746-.5407834-.52-.92.0236055-.9237653-.0636848-1.8470272-.26-2.75-.1912601-1.1189743-1.1269907-1.9594756-2.26-2.03-.5959798-.0688381-1.1848576-.1892904-1.76-.36-1.223377-.4191101-2.0700073-1.5387194-2.14-2.83-.1305148-.8063037-.0688423-1.63203.18-2.41.5294021-1.6064434.5607744-3.3354082.09-4.96-.454663-1.4565949-.7464451-2.9591051-.87-4.48-.1229991-1.5455015.0674771-3.0999235.56-4.57.4608083-1.3044109 1.2014636-2.4921897 2.17-3.48 1.1295638-1.15347623 2.4842968-2.06230461 3.98-2.67.44-.19.9-.35 1.36-.5 3.9721384-1.24002388 8.2278616-1.24002388 12.2 0 .46.15.92.31 1.36.5 1.4957032.60769539 2.8504362 1.51652377 3.98 2.67.9685364.9878103 1.7091917 2.1755891 2.17 3.48.4925229 1.4700765.6829991 3.0244985.56 4.57-.1235549 1.5208949-.415337 3.0234051-.87 4.48z" fill="#f5f5f5"/><path id="Shape" d="m58.27 31.76-4.93 4.93c-1.0193822-1.3058312-2.8146415-1.7181443-4.3016339-.9879465-1.4869923.7301979-2.2583961 2.4028887-1.8483661 4.0079465.0382187.1614118.0917962.3187959.16.47l-17.35 4.41h-.01l-17.34-4.41c.0682038-.1512041.1217813-.3085882.16-.47.41003-1.6050578-.3613738-3.2777486-1.8483661-4.0079465-1.48699238-.7301978-3.28225171-.3178847-4.3016339.9879465l-4.93-4.93c-.96982678-.9729291-.96982678-2.5470709 0-3.52l14.66-14.66c-.4925229 1.4700765-.6829991 3.0244985-.56 4.57.1235549 1.5208949.415337 3.0234051.87 4.48.4707744 1.6245918.4394021 3.3535566-.09 4.96-.2488423.77797-.3105148 1.6036963-.18 2.41.0699927 1.2912806.916623 2.4108899 2.14 2.83.5751424.1707096 1.1640202.2911619 1.76.36 1.1330093.0705244 2.0687399.9110257 2.26 2.03.1963152.9029728.2836055 1.8262347.26 2.75-.0100746.3792166.1899163.7330467.52.92.38.19.82.29 1.27.46l.16.04c3.4568469.9569354 7.1105017.9430958 10.56-.04.45-.17.89-.27 1.27-.46.3300837-.1869533.5300746-.5407834.52-.92-.0236055-.9237653.0636848-1.8470272.26-2.75.1912601-1.1189743 1.1269907-1.9594756 2.26-2.03.5959798-.0688381 1.1848576-.1892904 1.76-.36 1.223377-.4191101 2.0700073-1.5387194 2.14-2.83.1305148-.8063037.0688423-1.63203-.18-2.41-.5294021-1.6064434-.5607744-3.3354082-.09-4.96.454663-1.4565949.7464451-2.9591051.87-4.48.1229991-1.5455015-.0674771-3.0999235-.56-4.57l14.66 14.66c.9698268.9729291.9698268 2.5470709 0 3.52z" fill="#ffdc00"/><path id="Shape" d="m12.809 17.161c0 .326 0 .654.021.989.1235549 1.5208949.415337 3.0234051.87 4.48.4707744 1.6245918.4394021 3.3535566-.09 4.96-.2488423.77797-.3105148 1.6036963-.18 2.41.0699927 1.2912806.916623 2.4108899 2.14 2.83.5751424.1707096 1.1640202.2911619 1.76.36 1.1330093.0705244 2.0687399.9110257 2.26 2.03.1963152.9029728.2836055 1.8262347.26 2.75-.0100746.3792166.1899163.7330467.52.92.38.19.82.29 1.27.46l.16.04c2.1859104.6053416 4.4608645.8236316 6.722.645-1.2586812-.0935196-2.5052453-.3095416-3.722-.645l-.16-.04c-.45-.17-.89-.27-1.27-.46-.3300837-.1869533-.5300746-.5407834-.52-.92.0236055-.9237653-.0636848-1.8470272-.26-2.75-.1912601-1.1189743-1.1269907-1.9594756-2.26-2.03-.5959798-.0688381-1.1848576-.1892904-1.76-.36-1.223377-.4191101-2.0700073-1.5387194-2.14-2.83-.1305148-.8063037-.0688423-1.63203.18-2.41.5294021-1.6064434.5607744-3.3354082.09-4.96-.454663-1.4565949-.7464451-2.9591051-.87-4.48-.1229991-1.5455015.0674771-3.0999235.56-4.57z" fill="#fec108"/><path id="Shape" d="m58.27 28.24-14.66-14.66c.3915764 1.1530223.5879414 2.3633201.581 3.581l11.079 11.079c.9698268.9729291.9698268 2.5470709 0 3.52l-3.728 3.728c.7110026.2013242 1.3406998.6211223 1.8 1.2l4.93-4.93c.9679457-.9732479.9670517-2.5458533-.002-3.518z" fill="#fec108"/><path id="Shape" d="m49.073 35.687c-1.2241703-.5856205-2.6768437-.4082995-3.7242005.4545955-1.0473569.8628951-1.4993619 2.2547982-1.1587995 3.5684045.0382187.1614118.0917962.3187959.16.47l-15.85 4.03 1.495.38h.005l17.35-4.41c-.0682038-.1512041-.1217813-.3085882-.16-.47-.4097991-1.6182445.3778575-3.3010605 1.883-4.023z" fill="#fec108"/><path id="Shape" d="m37.46 7.43c-.44-.19-.9-.35-1.36-.5-3.9721384-1.24002388-8.2278616-1.24002388-12.2 0-.46.15-.92.31-1.36.5l5.7-5.7c.9729291-.96982678 2.5470709-.96982678 3.52 0z" fill="#ffdc00"/><path id="Shape" d="m38.2 51.83-6.44 6.44c-.9729291.9698268-2.5470709.9698268-3.52 0l-6.44-6.44 8.2-2.08z" fill="#ffdc00"/><path id="Shape" d="m30 49.75-1.5.38 6.7 1.7-6.44 6.44c-.0815301.0767423-.1684161.1475878-.26.212.9870974.7534664 2.3788004.662963 3.26-.212l6.44-6.44z" fill="#fec108"/><path id="Shape" d="m44.17 18.15c.1229991-1.5455015-.0674771-3.0999235-.56-4.57-.4608083-1.3044109-1.2014636-2.4921897-2.17-3.48-1.1295638-1.15347623-2.4842968-2.06230461-3.98-2.67-.44-.19-.9-.35-1.36-.5-1.972429-.62605754-4.0306215-.93984754-6.1-.93-.5 0-1 .019-1.5.054 1.5629727.10602178 3.1074563.40014518 4.6.876.46.15.92.31 1.36.5 1.4957032.60769539 2.8504362 1.51652377 3.98 2.67.9685364.9878103 1.7091917 2.1755891 2.17 3.48.4925229 1.4700765.6829991 3.0244985.56 4.57-.1235549 1.5208949-.415337 3.0234051-.87 4.48-.4707744 1.6245918-.4394021 3.3535566.09 4.96.2488423.77797.3105148 1.6036963.18 2.41-.0699927 1.2912806-.916623 2.4108899-2.14 2.83-.5751424.1707096-1.1640202.2911619-1.76.36-1.1330093.0705244-2.0687399.9110257-2.26 2.03-.1963152.9029728-.2836055 1.8262347-.26 2.75.0100746.3792166-.1899163.7330467-.52.92-.38.19-.82.29-1.27.46-1.2534065.3552409-2.5390907.5847077-3.838.685 2.3018916.1765194 4.6168634-.0553841 6.838-.685.45-.17.89-.27 1.27-.46.3300837-.1869533.5300746-.5407834.52-.92-.0236055-.9237653.0636848-1.8470272.26-2.75.1912601-1.1189743 1.1269907-1.9594756 2.26-2.03.5959798-.0688381 1.1848576-.1892904 1.76-.36 1.223377-.4191101 2.0700073-1.5387194 2.14-2.83.1305148-.8063037.0688423-1.63203-.18-2.41-.5294021-1.6064434-.5607744-3.3354082-.09-4.96.454663-1.4565949.7464451-2.9591051.87-4.48z" fill="#cfd8dc"/><path id="Shape" d="m27.78 27.04c-.2891982.6052545-.8017802 1.0748226-1.43 1.31-1.2505096.5355969-2.61638.7454661-3.97.61-.7597458-.0157277-1.462971-.4047458-1.88-1.04-.3406316-.6107071-.5131657-1.3008436-.5-2-.1208813-1.2203934.6433944-2.354209 1.82-2.7 1.3771844-.3360113 2.8205172-.2840929 4.17.15.7555202.2040912 1.3859238.7248324 1.7289967 1.4282277.343073.7033954.3653152 1.5207603.0610033 2.2417723z" fill="#37474f"/><path id="Shape" d="m40 25.92c.0131657.6991564-.1593684 1.3892929-.5 2-.417029.6352542-1.1202542 1.0242723-1.88 1.04-1.35362.1354661-2.7194904-.0744031-3.97-.61-.6282198-.2351774-1.1408018-.7047455-1.43-1.31-.3043119-.721012-.2820697-1.5383769.0610033-2.2417723.3430729-.7033953.9734765-1.2241365 1.7289967-1.4282277 1.3494828-.4340929 2.7928156-.4860113 4.17-.15 1.1766056.345791 1.9408813 1.4796066 1.82 2.7z" fill="#37474f"/><path id="Shape" d="m55.45 50.55c-.300131 1.1922127-1.2096907 2.1360236-2.39 2.48 1.195221 1.1980489 1.3620708 3.0796446.3963149 4.4693172-.9657558 1.3896726-2.7874563 1.8893213-4.3270491 1.1868057-1.5395929-.7025157-2.3560295-2.4059454-1.9392658-4.0461229.0366868-.1650759.0903039-.3259272.16-.48l-9.15-2.33-8.2-2.08-10.14-2.58h-.01l-3.63-.92-4.8-1.22c-.015428.1656766-.0455464.3296547-.09.49-.1613722.628147-.4936697 1.1992832-.96 1.65-1.35325683 1.3108629-3.50136015 1.3152829-4.86.01-.89386194-.8639535-1.26237479-2.1372118-.96813593-3.3450314.29423886-1.2078197 1.20706926-2.1689279 2.39813593-2.5249686-.86771376-.8728007-1.21324254-2.1372082-.91-3.33.11526364-.47013.33010326-.9100397.63-1.29 1.01938219-1.3058312 2.81464152-1.7181443 4.3016339-.9879465 1.4869923.7301979 2.2583961 2.4028887 1.8483661 4.0079465-.0382187.1614118-.0917962.3187959-.16.47l17.34 4.41h.01l10.13 2.58h.01l2.17.55 6.27 1.6c.0154117-.1689656.0455258-.3362657.09-.5.4800198-1.8684668 2.3786666-2.9987201 4.25-2.53.593951.1498218 1.1363945.4573216 1.57.89.9055213.8672887 1.272553 2.1557228.96 3.37z" fill="#f5f5f5"/><path id="Shape" d="m54.49 47.18c-.4336055-.4326784-.976049-.7401782-1.57-.89-.7973444-.2010719-1.6402052-.1121072-2.378.251.350001.157608.6705886.3737003.948.639.893803.8603781 1.2624851 2.1312391.9678964 3.3363747s-1.2079732 2.1626025-2.3978964 2.5136253c.8040266.8048135 1.1643426 1.9515629.9651178 3.0716044-.1992247 1.1200415-.9328796 2.0722033-1.9651178 2.5503956 1.5362767.7401595 3.3823705.2654023 4.3709714-1.1240762.9886009-1.3894786.8319199-3.2891911-.3709714-4.4979238 1.1899232-.3510228 2.1033077-1.3084897 2.3978964-2.5136253s-.0740934-2.4759966-.9678964-3.3363747z" fill="#cfd8dc"/><path id="Shape" d="m43.78 46.25-1.47 1.47-2.17-.55z" fill="#ffdc00"/><path id="Shape" d="m54.49 47.18c-.4336055-.4326784-.976049-.7401782-1.57-.89-1.1750597-.2959723-2.4196117.0369169-3.29.88-.4663303-.4507168-.7986278-1.021853-.96-1.65-.0444536-.1603453-.074572-.3243234-.09-.49l-4.8 1.22-3.64.92h-.01l-10.13-2.58 17.35-4.41c-.0682038-.1512041-.1217813-.3085882-.16-.47-.41003-1.6050578.3613738-3.2777486 1.8483661-4.0079465 1.4869924-.7301978 3.2822517-.3178847 4.3016339.9879465.2998967.3799603.5147364.81987.63 1.29.3032425 1.1927918-.0422862 2.4571993-.91 3.33 1.1910667.3560407 2.1038971 1.3171489 2.3981359 2.5249686.2942389 1.2078196-.074274 2.4810779-.9681359 3.3450314z" fill="#cfd8dc"/><path id="Shape" d="m19.85 47.17-2.16.55-1.47-1.47z" fill="#ffdc00"/><path id="Shape" d="m21.8 51.83-9.15 2.33c.0696961.1540728.1233132.3149241.16.48.4167637 1.6401775-.3996729 3.3436072-1.9392658 4.0461229-1.53959279.7025156-3.36129327.2028669-4.32704911-1.1868057s-.7989061-3.2712683.39631491-4.4693172c-1.1899232-.3510228-2.10330771-1.3084897-2.39789641-2.5136253s.07409345-2.4759966.96789641-3.3363747c1.35863985 1.3052829 3.50674317 1.3008629 4.86-.01.4663303.4507168.7986278 1.021853.96 1.65.0444742.1637343.0745883.3310344.09.5l6.27-1.6 2.16-.55h.01l10.14 2.58z" fill="#cfd8dc"/><g fill="#000"><path id="Shape" d="m44.437 12.993c-.5069162-1.3402066-1.2820732-2.5628313-2.278-3.593-1.1751413-1.20209334-2.5772443-2.15892244-4.125-2.815l-5.567-5.562c-1.3814895-1.31580953-3.5525105-1.31580953-4.934 0l-5.567 5.566c-1.5475962.65510346-2.9499625 1.61052074-4.126 2.811-.9950438 1.0291385-1.7698217 2.2503408-2.277 3.589l-14.54 14.544c-1.3613085 1.3629742-1.3613085 3.5710258 0 4.934l4.377 4.372c-.65350333 1.2869994-.64044892 2.8113814.035 4.087-.9933251.6633923-1.67942627 1.697131-1.90493113 2.8701321-.22550487 1.1730011.02839096 2.3874506.70493113 3.3718679-.72617397 1.0589991-.96186185 2.3791427-.647 3.624.26515132 1.0773418.9263834 2.0152774 1.852 2.627-1.09797996 2.1559368-.29474298 4.7941754 1.81837351 5.9724631 2.1131165 1.1782878 4.77969829.474843 6.03662649-1.5924631.5259137-.8764245.7342422-1.9071209.59-2.919l7.615-1.937 6.034 6.034c1.3634297 1.3602073 3.5705703 1.3602073 4.934 0l6.032-6.033 7.624 1.938c-.2682536 1.9263505.731437 3.8070382 2.4782547 4.6622658 1.7468176.8552275 3.8453922.4914249 5.202412-.9018746 1.3570197-1.3932996 1.6653403-3.5007402.7643333-5.2243912 1.9832319-1.3306283 2.5796574-3.9798466 1.358-6.032-.045-.076-.1-.137-.154-.209.6751208-.9874394.9270183-2.2039825.6995152-3.3783193s-.9154854-2.2087979-1.9105152-2.8726807c.5144923-.9783546.649122-2.1123783.378-3.184-.0776782-.3114377-.1896979-.6132872-.334-.9l4.37-4.371c1.3613085-1.3629742 1.3613085-3.5710258 0-4.934zm-15.489-10.555c.5895775-.56088931 1.5154225-.56088931 2.105 0l2.953 2.952c-2.6459559-.49237164-5.3600441-.49237164-8.006 0zm-9.669 8.362c1.369013-1.37223833 3.0639344-2.37453351 4.926-2.913 3.7747638-1.17665048 7.8182362-1.17665048 11.593 0 1.8605334.53826736 3.5540506 1.53985786 4.922 2.911 1.854606 1.9522274 2.7520443 4.6240462 2.452 7.3-.1211457 1.4489592-.4011598 2.880217-.835 4.268-.5274284 1.8143207-.4925624 3.7458957.1 5.54.1982578.6287674.2465465 1.29522.141 1.946-.0091914.9166074-.591816 1.7291629-1.457 2.032-.5232172.1528101-1.0584776.2608658-1.6.323-1.5313189.1363882-2.7878895 1.2690141-3.082 2.778-.2237692.9870548-.3095865 2.0003714-.255 3.011-.2168291.0998223-.4407797.183386-.67.25-.152.05-.306.1-.463.157l-.051.007v-.41c0-.5522847-.4477153-1-1-1s-1 .4477153-1 1v.844c-.6623272.1082989-1.3299311.1814015-2 .219v-1.063c0-.5522847-.4477153-1-1-1s-1 .4477153-1 1v1.065c-.6702089-.0375602-1.3378685-.1116704-2-.222v-.843c0-.5522847-.4477153-1-1-1s-1 .4477153-1 1v.414h-.014c-.169-.061-.336-.117-.5-.171-.2233373-.0586621-.4374-.1481914-.636-.266.0243166-1.0081278-.0737327-2.0154837-.292-3-.2956676-1.5122314-1.5577668-2.6453867-3.093-2.777-.5368-.0614005-1.0673881-.1684548-1.586-.32-.8671036-.3016134-1.4516269-1.114985-1.461-2.033-.1055465-.65078-.0572578-1.3172326.141-1.946.5936147-1.7959824.6284831-3.729785.1-5.546-.4330563-1.3868617-.7123996-2.8171123-.833-4.265-.297154-2.6728137.6004983-5.3405204 2.453-7.29zm-6.879 42.391c-.289184.0736359-.5303719.2725736-.657677.5424681-.1273051.2698946-.1274235.582541-.000323.8525319.0440237.0961133.077551.1966951.1.3.2682286.8817374.0295788 1.8395388-.6210024 2.4923417s-1.60756344.8947167-2.49021018.6294956c-.88264674-.2652212-1.54778451-.9945558-1.73078742-1.8978373-.21573653-.8539879.03384699-1.7584907.657-2.381.24467099-.2504188.34056258-.6105582.25281306-.9494881-.08774951-.33893-.34636011-.6072881-.68181306-.7075119-.71252034-.2044568-1.2950635-.7189487-1.58601203-1.4007381s-.25935626-1.458359.08601203-2.1142619c1.36269907.8098376 3.05838096.8129039 4.424.008.0883932.1650965.1591182.3390597.211.519.0274073.0961314.0461488.1945246.056.294.0307628.5295129.469595.9428929 1 .942.0833367.0005454.1663828-.0098774.247-.031l8.182-2.089 6.091 1.548zm3.3-6.042.037.037-3.593.916c-.1256988-.3301109-.2898287-.6442737-.489-.936.1991338-.2865707.3636135-.5957255.49-.921zm15.352 10.414c-.5899816.5598775-1.5150184.5598775-2.105 0l-5.193-5.193 6.246-1.587 6.246 1.587zm23.432-7.263c-.2160609.853236-.867843 1.5282282-1.713 1.774-.3368768.1006753-.5961318.3708709-.6828044.7116192s.0119729.7019794.2598044.9513808c.8562387.8553038.9768719 2.2011072.2863936 3.1950534s-1.9937643 1.350576-3.0941133.84667c-1.1003491-.5039061-1.6817434-1.7236273-1.3802803-2.8957234.0243516-.1027731.0578174-.2031705.1-.3.1240629-.2697375.1218513-.5806563-.0060361-.8486017s-.3682257-.4652089-.6559639-.5383983l-35.936-9.138c-.0802239-.0214991-.1629457-.0322597-.246-.032-.5285888-.00105-.9666999.4094601-1 .937-.0083652.1051845-.0267826.2093264-.055.311-.2943095 1.174318-1.38774678 1.9690123-2.59556252 1.8864172-1.20781574-.0825952-2.1828913-1.0187425-2.31459974-2.2221932-.13170845-1.2034508.61780241-2.3283408 1.77916226-2.670224.33873611-.1000456.5995715-.3713624.68620114-.7137753.08662964-.3424128-.01379719-.705128-.26420114-.9542247-.78795166-.7967534-.94948079-2.0204911-.39525144-2.9944078.55422934-.9739167 1.68881213-1.4600725 2.77625144-1.1895922.6428509.1633436 1.1944419.5754546 1.5333486 1.145613.3389067.5701585.4373472 1.2516257.2736514 1.894387-.0241101.1028417-.0575831.2032606-.1.3-.1248199.2698026-.1231297.5811526.004612.8495842.1277418.2684316.3682905.4661131.656388.5394158l35.937 9.136c.288231.074979.5949021.0162157.835-.16.2407059-.1749611.3909873-.4480333.41-.745.0087632-.1054619.0271736-.2098986.055-.312.341312-1.3381859 1.7028141-2.146312 3.041-1.805s2.146312 1.7028141 1.805 3.041zm-6.229-10.546c-.0427263-.0942045-.0762163-.1923304-.1-.293-.1659299-.6415734-.0672065-1.322909.274-1.891.4198244-.7127557 1.1657371-1.1709732 1.9912911-1.2232589.8255539-.0522858 1.6233163.3081644 2.1297089.9622589.2145756.2710108.3680763.5851755.45.921.2126159.8516952-.0349785 1.7525902-.653 2.376-.247303.249573-.3454875.6106218-.2586354.9510658.0868522.3404441.3459979.6103327.6826354.7109342.8457871.2454718 1.4966797.9230404 1.708 1.778.1414516.5858283.0665201 1.2030365-.211 1.738-.3446359-.201697-.7145378-.3567195-1.1-.461-1.1248454-.2835814-2.3158541-.1193785-3.322.458-.0872228-.1602746-.1566364-.3296168-.207-.505-.0295536-.0979556-.0503027-.1983541-.062-.3-.0182545-.2972292-.1680271-.5708591-.4085587-.746424-.2405316-.1755648-.5467941-.2347966-.8354413-.161576l-8.193 2.076-6.087-1.547 13.547-3.449c.2889113-.0736998.5298653-.2724763.657139-.5421108.1272737-.2696346.1275894-.5819979.000861-.8518892zm-3.96 7.4 3.559-.9c.1256363.3277488.2894309.6395626.488.929-.2002328.2865818-.3654099.5961209-.492.922l-3.591-.913zm13.268-16.1-4.237 4.238c-1.4456366-1.1097111-3.4178592-1.2379199-4.9950003-.3247114s-2.4477617 2.6875025-2.2049997 4.4937114l-16.126 4.098-16.122-4.1c.3112776-2.2696019-1.1295178-4.4116505-3.349-4.979-1.15646943-.2976912-2.38400795-.1193955-3.408.495-.15204076.0980401-.29797694.205238-.437.321l-4.247-4.243c-.57999622-.582201-.57999622-1.523799 0-2.106l12.4-12.4c-.0315143.5522174-.0315143 1.1057826 0 1.658.1257269 1.5917935.4275712 3.1647378.9 4.69.4167964 1.4380137.3882077 2.9685545-.082 4.39-.2934945.9266889-.3664328 1.9091303-.213 2.869.1210295 1.6676109 1.2348884 3.0980237 2.822 3.624.6262828.1883126 1.2676694.322144 1.917.4.7319144.0071996 1.3460417.5538498 1.438 1.28.1781824.824929.2557477 1.6684099.231 2.512-.0161152.7603001.4027006 1.4632429 1.079 1.811.3026069.1420451.6150883.2620246.935.359.141.046.285.092.507.171l.164.045c1.7762431.4900433 3.6103981.7386111 5.453.739h.012.012c1.9009111-.0010681 3.7925265-.2652414 5.621-.785.025-.007.049-.015.073-.024.145-.054.289-.1.43-.146.3206191-.0972091.6337725-.2175242.937-.36.6753643-.3479739 1.0933494-1.0504373 1.077-1.81-.0245595-.8394622.0519908-1.6788297.228-2.5.0872901-.725442.6964364-1.2752531 1.427-1.288.6553163-.0773564 1.3027237-.2111874 1.935-.4 1.5852229-.527156 2.6972092-1.9567963 2.818-3.623.1534328-.9598697.0804945-1.9423111-.213-2.869-.4700427-1.4189824-.4993281-2.9470496-.084-4.383.474813-1.5263552.7790031-3.1006311.907-4.694.0315201-.5532181.0315201-1.1077819 0-1.661l12.4 12.4c.5799962.582201.5799962 1.523799 0 2.106z"/><path id="Shape" d="m21.574 22.248c-1.6285234.4450904-2.7097021 1.9862109-2.574 3.669-.0158816.8842775.2058288 1.7566148.642 2.526.5792309.9088017 1.5689401 1.4739757 2.646 1.511.3046667.03.6083333.045.911.045 1.2176045.0011131 2.4225916-.2466222 3.541-.728.8671449-.3318358 1.5687538-.9917722 1.953-1.837.4192023-.9463222.4108227-2.0272903-.023-2.967-.4659139-.9923961-1.3314583-1.7401595-2.381-2.057-1.5272786-.4841655-3.1580919-.5401977-4.715-.162zm5.278 3.052c.1942783.4236209.1968286.9103665.007 1.336-.1787949.3797898-.5061416.6691571-.905.8-1.0935555.4686441-2.2883612.6513751-3.472.531-.746-.073-1-.338-1.131-.559-.2428386-.4547466-.3637646-.9646339-.351-1.48-.1065672-.7622893.3426847-1.4930053 1.071-1.742 1.1975449-.2879642 2.4511987-.2412635 3.624.135.5084001.1449667.9298838.5016068 1.157.979z"/><path id="Shape" d="m33.261 29.273c1.1179635.4804447 2.3221726.7278196 3.539.727.3 0 .606-.015.912-.045 1.0772019-.0374176 2.0668762-.6029458 2.646-1.512.4359882-.7694588.6576857-1.6417452.642-2.526.1357021-1.6827891-.9454766-3.2239096-2.574-3.669-1.5570463-.3774122-3.1877345-.3210385-4.715.163-1.0495417.3168405-1.9150861 1.0646039-2.381 2.057-.4338227.9397097-.4422023 2.0206778-.023 2.967.3845368.8456069 1.0864698 1.5058693 1.954 1.838zm-.113-3.973c.2266634-.4781561.6482142-.8355816 1.157-.981.6783545-.2109228 1.3846107-.3184625 2.095-.319.5148294-.001974 1.0278606.060853 1.527.187.7286968.2481744 1.1788107.9785083 1.073 1.741.012518.5143841-.1084088 1.023241-.351 1.477-.134.222-.385.487-1.131.56-1.1832202.1203851-2.3776236-.0619929-3.471-.53-.3990543-.1309207-.7266876-.4202217-.906-.8-.189527-.4253488-.1869771-.9116621.007-1.335z"/><path id="Shape" d="m27.293 30.293c-.3903819.3904999-.3903819 1.0235001 0 1.414l1.293 1.293c.7809997.7807639 2.0470003.7807639 2.828 0l1.293-1.293c.3789722-.3923789.3735524-1.0160848-.0121814-1.4018186s-1.0094397-.3911536-1.4018186-.0121814l-1.293 1.293-1.293-1.293c-.3904999-.3903819-1.0235001-.3903819-1.414 0z"/><path id="Shape" d="m19.778 18h.027c.5422884.0001833.9859005-.4318949 1-.974-.0287414-1.2848933.4589934-2.5276444 1.354-3.45.9110791-.8883863 2.0306431-1.5337861 3.256-1.877.3106667-.0993333.6236667-.1876667.939-.265.5362685-.1322722.8637722-.6742315.7315-1.2105-.1322722-.53626849-.6742315-.8637722-1.2105-.7315-.359.088-.715.19-1.068.3-1.5418909.4406055-2.9474129 1.2637612-4.086 2.393-1.2471617 1.27905-1.9358849 3.0006783-1.915 4.787-.0075309.2652454.0906689.5226088.2729762.7154194s.4337725.3052576.6990238.3125806z"/><path id="Shape" d="m8.45 25.606-3.687 3.687c-.39038194.3904999-.39038194 1.0235001 0 1.414l2.187 2.187c.2527654.2525868.62108371.3511378.96621297.25853.34512927-.0926079.61463614-.3623054.707-.7075.09236386-.3451947-.00644757-.7134432-.25921297-.96603l-1.48-1.479 2.98-2.979c.2527654-.2525868.3515768-.6208353.259213-.96603-.0923639-.3451946-.36187075-.6148921-.70700002-.7075s-.71344758.0059432-.96621298.25853z"/><path id="Shape" d="m51.55 25.606c-.3907415-.3904653-1.0240347-.3902414-1.4145.0005-.3904653.3907415-.3902414 1.0240347.0005 1.4145l2.98 2.979-1.48 1.479c-.2527654.2525868-.3515768.6208353-.259213.96603.0923639.3451946.3618708.6148921.707.7075.3451293.0926078.7134476-.0059432.966213-.25853l2.187-2.187c.3903819-.3904999.3903819-1.0235001 0-1.414z"/></g></g></g></svg>